<?xml version="1.0" encoding="iso-8859-1"?>
<!DOCTYPE svg PUBLIC "-//W3C//DTD SVG 1.1//EN" "http://www.w3.org/Graphics/SVG/1.1/DTD/svg11.dtd">
<svg fill="white" version="1.1" id="Capa_1" xmlns="http://www.w3.org/2000/svg" xmlns:xlink="http://www.w3.org/1999/xlink" 
	 width="80px" height="80px" viewBox="0 0 79.752 79.751"
	 xml:space="preserve" transform="rotate(90)">
<g>
	<g>
		<path d="M30.479,57.088h19.042c0.355,0,0.688-0.188,0.867-0.5l9.521-16.489c0.178-0.31,0.178-0.688,0-1l-9.521-16.49
			c-0.182-0.31-0.512-0.5-0.867-0.5H30.479c-0.356,0-0.688,0.19-0.865,0.5l-9.521,16.49c-0.179,0.312-0.179,0.69,0,1l9.521,16.489
			C29.791,56.897,30.122,57.088,30.479,57.088z M31.056,24.108h17.887l8.943,15.49l-8.943,15.489H31.056l-8.942-15.489
			L31.056,24.108z"/>
		<path d="M40,48.349c4.824,0,8.75-3.926,8.75-8.75c0-4.825-3.926-8.75-8.75-8.75c-4.825,0-8.75,3.925-8.75,8.75
			C31.25,44.423,35.175,48.349,40,48.349z M40,32.849c3.723,0,6.75,3.028,6.75,6.75c0,3.723-3.027,6.75-6.75,6.75
			c-3.724,0-6.75-3.027-6.75-6.75S36.279,32.849,40,32.849z"/>
	</g>
</g>
</svg>