<?xml version="1.0" encoding="iso-8859-1"?>
<!-- Uploaded to: SVG Repo, www.svgrepo.com, Generator: SVG Repo Mixer Tools -->
<!DOCTYPE svg PUBLIC "-//W3C//DTD SVG 1.1//EN" "http://www.w3.org/Graphics/SVG/1.1/DTD/svg11.dtd">
<svg fill="#ffffff" version="1.1" id="Capa_1" xmlns="http://www.w3.org/2000/svg" xmlns:xlink="http://www.w3.org/1999/xlink" 
	 width="30px" viewBox="0 0 32.001 32.001"
	 xml:space="preserve">
<g>
	<g id="money_time">
		<g>
			<path d="M22.708,2.258c-1.849,0-3.566,0.551-5.013,1.488c0.203-1.24,0.158-2.395-0.356-3.111c-1.735-2.4-4.639,2.816-5.973,2.283
				C10.029,2.385,7.188-0.4,5.304,0.736C3.673,1.718,6.327,8.312,7.609,9.265c0,0,2.068,0.492,4.098,0.492
				c0.758,0,1.416-0.041,1.947-0.092c-0.1,0.488-0.15,0.994-0.168,1.508c-0.617,0.055-1.244,0.094-1.885,0.094
				c-1.598,0-3.135-0.174-4.576-0.492c-2.533,2.045-6.969,9.314-6.969,12.482c0,5.714,5.034,8.744,11.246,8.744
				c6.209,0,11.243-3.03,11.243-8.743c0-0.687-0.199-1.57-0.531-2.562c0.229,0.019,0.459,0.035,0.693,0.035
				c5.094,0,9.237-4.144,9.237-9.237C31.945,6.403,27.8,2.258,22.708,2.258z M14.812,25.038c-0.129,0.277-0.307,0.521-0.531,0.73
				c-0.227,0.209-0.494,0.379-0.805,0.508c-0.311,0.129-0.646,0.207-1.01,0.229v0.764h-1.693v-0.992
				c-0.09-0.041-0.176-0.078-0.26-0.115c-0.086-0.035-0.168-0.074-0.248-0.113v0.373H8.572v-2.54h1.693
				c0.145,0.162,0.287,0.303,0.43,0.418c0.141,0.117,0.285,0.217,0.436,0.289c0.148,0.078,0.314,0.137,0.494,0.17
				c0.182,0.037,0.391,0.057,0.623,0.057c0.307,0,0.561-0.063,0.762-0.188c0.203-0.125,0.303-0.289,0.303-0.49
				c0-0.168-0.051-0.314-0.156-0.439s-0.24-0.232-0.406-0.32c-0.164-0.088-0.346-0.158-0.543-0.211
				c-0.197-0.053-0.393-0.096-0.588-0.127c-0.686-0.104-1.234-0.266-1.645-0.484c-0.412-0.217-0.727-0.454-0.949-0.713
				c-0.221-0.258-0.367-0.521-0.436-0.793c-0.068-0.27-0.102-0.508-0.102-0.719c0-0.307,0.057-0.596,0.168-0.871
				c0.113-0.272,0.273-0.518,0.479-0.729c0.205-0.215,0.447-0.392,0.725-0.533c0.279-0.142,0.584-0.235,0.914-0.282v-0.8h1.693
				v0.921c0.25,0.071,0.475,0.168,0.678,0.288V17.96h1.691v2.541h-1.705c-0.137-0.151-0.27-0.289-0.398-0.406
				c-0.128-0.115-0.266-0.213-0.412-0.288c-0.145-0.075-0.303-0.136-0.477-0.177c-0.174-0.041-0.377-0.062-0.611-0.062
				c-0.338,0-0.598,0.08-0.779,0.242c-0.181,0.162-0.271,0.334-0.271,0.521c0,0.522,0.563,0.871,1.693,1.041
				c0.699,0.104,1.26,0.274,1.674,0.514c0.414,0.236,0.732,0.494,0.949,0.773c0.217,0.276,0.357,0.551,0.418,0.819
				c0.059,0.271,0.09,0.491,0.09,0.66C15.006,24.459,14.941,24.758,14.812,25.038z M23.478,18.581l-0.771-0.918l-0.772,0.918
				c-3.305-0.356-5.938-2.982-6.309-6.285l1.018-0.854l-1.002-0.844c0.412-3.262,3.031-5.844,6.312-6.189l0.752,0.895l0.752-0.895
				c3.277,0.346,5.896,2.924,6.312,6.182l-1.08,0.904l1.08,0.908C29.355,15.653,26.749,18.229,23.478,18.581z"/>
			<path d="M23.734,11.139c-0.037-0.076-0.084-0.146-0.139-0.211l-0.888-5.137l-0.941,5.197h0.003
				c-0.138,0.189-0.218,0.42-0.218,0.67c0,0.639,0.519,1.158,1.156,1.158c0.133,0,0.26-0.027,0.379-0.07l-0.002,0.006l3.498,0.408
				l-2.847-2.027L23.734,11.139z"/>
		</g>
	</g>
</g>
</svg>